<svg xmlns="http://www.w3.org/2000/svg" viewBox="0 0 600 60" preserveAspectRatio="none"><g fill="black"><rect x="0" y="15.66" width="2" height="28.68"/><rect x="4" y="9.59" width="2" height="40.81"/><rect x="8" y="9.58" width="2" height="40.85"/><rect x="12" y="11.01" width="2" height="37.97"/><rect x="16" y="10.82" width="2" height="38.35"/><rect x="20" y="10.25" width="2" height="39.50"/><rect x="24" y="10.06" width="2" height="39.87"/><rect x="28" y="10.18" width="2" height="39.64"/><rect x="32" y="9.56" width="2" height="40.88"/><rect x="36" y="9.85" width="2" height="40.30"/><rect x="40" y="11.48" width="2" height="37.05"/><rect x="44" y="10.53" width="2" height="38.93"/><rect x="48" y="11.81" width="2" height="36.37"/><rect x="52" y="11.12" width="2" height="37.77"/><rect x="56" y="10.82" width="2" height="38.36"/><rect x="60" y="10.13" width="2" height="39.75"/><rect x="64" y="9.80" width="2" height="40.40"/><rect x="68" y="8.54" width="2" height="42.93"/><rect x="72" y="5.80" width="2" height="48.41"/><rect x="76" y="9.94" width="2" height="40.11"/><rect x="80" y="7.72" width="2" height="44.56"/><rect x="84" y="6.78" width="2" height="46.44"/><rect x="88" y="8.09" width="2" height="43.82"/><rect x="92" y="7.12" width="2" height="45.76"/><rect x="96" y="8.54" width="2" height="42.92"/><rect x="100" y="9.95" width="2" height="40.10"/><rect x="104" y="8.54" width="2" height="42.91"/><rect x="108" y="8.27" width="2" height="43.45"/><rect x="112" y="8.32" width="2" height="43.35"/><rect x="116" y="7.48" width="2" height="45.03"/><rect x="120" y="9.12" width="2" height="41.77"/><rect x="124" y="7.65" width="2" height="44.71"/><rect x="128" y="8.03" width="2" height="43.94"/><rect x="132" y="11.10" width="2" height="37.81"/><rect x="136" y="7.69" width="2" height="44.62"/><rect x="140" y="10.28" width="2" height="39.43"/><rect x="144" y="10.64" width="2" height="38.73"/><rect x="148" y="10.67" width="2" height="38.66"/><rect x="152" y="10.22" width="2" height="39.56"/><rect x="156" y="10.99" width="2" height="38.03"/><rect x="160" y="10.33" width="2" height="39.34"/><rect x="164" y="10.21" width="2" height="39.57"/><rect x="168" y="9.63" width="2" height="40.75"/><rect x="172" y="10.74" width="2" height="38.53"/><rect x="176" y="9.56" width="2" height="40.89"/><rect x="180" y="10.40" width="2" height="39.20"/><rect x="184" y="10.29" width="2" height="39.42"/><rect x="188" y="11.50" width="2" height="37.00"/><rect x="192" y="10.25" width="2" height="39.49"/><rect x="196" y="11.42" width="2" height="37.15"/><rect x="200" y="5.68" width="2" height="48.64"/><rect x="204" y="5.62" width="2" height="48.77"/><rect x="208" y="9.23" width="2" height="41.55"/><rect x="212" y="9.68" width="2" height="40.65"/><rect x="216" y="9.30" width="2" height="41.40"/><rect x="220" y="7.43" width="2" height="45.15"/><rect x="224" y="7.89" width="2" height="44.22"/><rect x="228" y="10.75" width="2" height="38.51"/><rect x="232" y="8.92" width="2" height="42.17"/><rect x="236" y="7.41" width="2" height="45.17"/><rect x="240" y="7.35" width="2" height="45.30"/><rect x="244" y="9.09" width="2" height="41.82"/><rect x="248" y="8.58" width="2" height="42.84"/><rect x="252" y="7.78" width="2" height="44.45"/><rect x="256" y="8.65" width="2" height="42.70"/><rect x="260" y="9.03" width="2" height="41.95"/><rect x="264" y="9.18" width="2" height="41.65"/><rect x="268" y="6.49" width="2" height="47.03"/><rect x="272" y="6.86" width="2" height="46.29"/><rect x="276" y="11.22" width="2" height="37.57"/><rect x="280" y="10.43" width="2" height="39.13"/><rect x="284" y="10.44" width="2" height="39.12"/><rect x="288" y="10.15" width="2" height="39.70"/><rect x="292" y="10.50" width="2" height="38.99"/><rect x="296" y="9.80" width="2" height="40.41"/><rect x="300" y="9.93" width="2" height="40.14"/><rect x="304" y="10.82" width="2" height="38.35"/><rect x="308" y="10.30" width="2" height="39.40"/><rect x="312" y="11.61" width="2" height="36.77"/><rect x="316" y="11.27" width="2" height="37.46"/><rect x="320" y="10.84" width="2" height="38.31"/><rect x="324" y="10.08" width="2" height="39.83"/><rect x="328" y="9.98" width="2" height="40.03"/><rect x="332" y="6.53" width="2" height="46.94"/><rect x="336" y="5.98" width="2" height="48.04"/><rect x="340" y="7.83" width="2" height="44.35"/><rect x="344" y="8.62" width="2" height="42.76"/><rect x="348" y="8.18" width="2" height="43.63"/><rect x="352" y="9.14" width="2" height="41.71"/><rect x="356" y="8.99" width="2" height="42.03"/><rect x="360" y="8.75" width="2" height="42.51"/><rect x="364" y="8.55" width="2" height="42.90"/><rect x="368" y="10.12" width="2" height="39.76"/><rect x="372" y="7.09" width="2" height="45.83"/><rect x="376" y="9.78" width="2" height="40.45"/><rect x="380" y="9.79" width="2" height="40.43"/><rect x="384" y="7.41" width="2" height="45.17"/><rect x="388" y="7.02" width="2" height="45.96"/><rect x="392" y="7.53" width="2" height="44.93"/><rect x="396" y="9.35" width="2" height="41.29"/><rect x="400" y="5.08" width="2" height="49.84"/><rect x="404" y="9.62" width="2" height="40.76"/><rect x="408" y="8.65" width="2" height="42.69"/><rect x="412" y="9.43" width="2" height="41.15"/><rect x="416" y="9.34" width="2" height="41.31"/><rect x="420" y="7.80" width="2" height="44.40"/><rect x="424" y="10.49" width="2" height="39.01"/><rect x="428" y="10.12" width="2" height="39.75"/><rect x="432" y="9.20" width="2" height="41.61"/><rect x="436" y="10.06" width="2" height="39.89"/><rect x="440" y="8.82" width="2" height="42.36"/><rect x="444" y="8.21" width="2" height="43.57"/><rect x="448" y="10.49" width="2" height="39.01"/><rect x="452" y="8.76" width="2" height="42.49"/><rect x="456" y="9.35" width="2" height="41.31"/><rect x="460" y="11.33" width="2" height="37.33"/><rect x="464" y="4.00" width="2" height="52.00"/><rect x="468" y="6.20" width="2" height="47.60"/><rect x="472" y="8.99" width="2" height="42.03"/><rect x="476" y="7.55" width="2" height="44.90"/><rect x="480" y="8.56" width="2" height="42.89"/><rect x="484" y="10.02" width="2" height="39.96"/><rect x="488" y="8.77" width="2" height="42.45"/><rect x="492" y="10.30" width="2" height="39.39"/><rect x="496" y="11.02" width="2" height="37.96"/><rect x="500" y="10.15" width="2" height="39.70"/><rect x="504" y="9.16" width="2" height="41.69"/><rect x="508" y="9.44" width="2" height="41.12"/><rect x="512" y="8.45" width="2" height="43.10"/><rect x="516" y="7.48" width="2" height="45.05"/><rect x="520" y="8.31" width="2" height="43.38"/><rect x="524" y="10.09" width="2" height="39.82"/><rect x="528" y="10.03" width="2" height="39.93"/><rect x="532" y="15.08" width="2" height="29.84"/><rect x="536" y="21.07" width="2" height="17.86"/><rect x="540" y="26.82" width="2" height="6.35"/><rect x="544" y="28.18" width="2" height="3.63"/><rect x="548" y="29.00" width="2" height="2.00"/><rect x="552" y="29.00" width="2" height="2.00"/><rect x="556" y="29.00" width="2" height="2.00"/><rect x="560" y="29.00" width="2" height="2.00"/><rect x="564" y="29.00" width="2" height="2.00"/><rect x="568" y="29.00" width="2" height="2.00"/><rect x="572" y="29.00" width="2" height="2.00"/><rect x="576" y="29.00" width="2" height="2.00"/><rect x="580" y="29.00" width="2" height="2.00"/><rect x="584" y="29.00" width="2" height="2.00"/><rect x="588" y="29.00" width="2" height="2.00"/><rect x="592" y="29.00" width="2" height="2.00"/><rect x="596" y="29.00" width="2" height="2.00"/></g></svg>
