<svg xmlns="http://www.w3.org/2000/svg" viewBox="0 0 600 60" preserveAspectRatio="none"><g fill="black"><rect x="0" y="13.98" width="2" height="32.03"/><rect x="4" y="13.34" width="2" height="33.32"/><rect x="8" y="13.77" width="2" height="32.46"/><rect x="12" y="13.92" width="2" height="32.15"/><rect x="16" y="14.29" width="2" height="31.42"/><rect x="20" y="13.58" width="2" height="32.83"/><rect x="24" y="13.61" width="2" height="32.77"/><rect x="28" y="11.88" width="2" height="36.23"/><rect x="32" y="12.55" width="2" height="34.90"/><rect x="36" y="11.93" width="2" height="36.14"/><rect x="40" y="11.84" width="2" height="36.32"/><rect x="44" y="11.49" width="2" height="37.02"/><rect x="48" y="12.98" width="2" height="34.04"/><rect x="52" y="12.17" width="2" height="35.65"/><rect x="56" y="11.55" width="2" height="36.89"/><rect x="60" y="10.99" width="2" height="38.02"/><rect x="64" y="8.27" width="2" height="43.47"/><rect x="68" y="8.10" width="2" height="43.80"/><rect x="72" y="9.95" width="2" height="40.10"/><rect x="76" y="11.09" width="2" height="37.82"/><rect x="80" y="10.85" width="2" height="38.30"/><rect x="84" y="10.82" width="2" height="38.37"/><rect x="88" y="10.79" width="2" height="38.42"/><rect x="92" y="7.17" width="2" height="45.66"/><rect x="96" y="7.07" width="2" height="45.87"/><rect x="100" y="8.88" width="2" height="42.25"/><rect x="104" y="9.11" width="2" height="41.78"/><rect x="108" y="10.44" width="2" height="39.11"/><rect x="112" y="9.48" width="2" height="41.03"/><rect x="116" y="9.26" width="2" height="41.49"/><rect x="120" y="9.18" width="2" height="41.64"/><rect x="124" y="9.14" width="2" height="41.71"/><rect x="128" y="8.75" width="2" height="42.51"/><rect x="132" y="8.38" width="2" height="43.24"/><rect x="136" y="8.60" width="2" height="42.79"/><rect x="140" y="9.07" width="2" height="41.86"/><rect x="144" y="9.68" width="2" height="40.63"/><rect x="148" y="10.98" width="2" height="38.03"/><rect x="152" y="11.29" width="2" height="37.42"/><rect x="156" y="11.35" width="2" height="37.30"/><rect x="160" y="8.72" width="2" height="42.55"/><rect x="164" y="9.70" width="2" height="40.59"/><rect x="168" y="11.26" width="2" height="37.49"/><rect x="172" y="12.99" width="2" height="34.03"/><rect x="176" y="13.49" width="2" height="33.01"/><rect x="180" y="13.44" width="2" height="33.13"/><rect x="184" y="11.42" width="2" height="37.17"/><rect x="188" y="10.67" width="2" height="38.66"/><rect x="192" y="11.17" width="2" height="37.67"/><rect x="196" y="13.23" width="2" height="33.53"/><rect x="200" y="13.40" width="2" height="33.21"/><rect x="204" y="13.42" width="2" height="33.16"/><rect x="208" y="12.09" width="2" height="35.83"/><rect x="212" y="9.94" width="2" height="40.11"/><rect x="216" y="10.54" width="2" height="38.92"/><rect x="220" y="12.04" width="2" height="35.92"/><rect x="224" y="7.91" width="2" height="44.19"/><rect x="228" y="4.00" width="2" height="52.00"/><rect x="232" y="7.07" width="2" height="45.85"/><rect x="236" y="7.42" width="2" height="45.16"/><rect x="240" y="7.89" width="2" height="44.22"/><rect x="244" y="7.38" width="2" height="45.25"/><rect x="248" y="7.23" width="2" height="45.54"/><rect x="252" y="7.73" width="2" height="44.54"/><rect x="256" y="7.78" width="2" height="44.43"/><rect x="260" y="7.63" width="2" height="44.73"/><rect x="264" y="7.61" width="2" height="44.79"/><rect x="268" y="8.94" width="2" height="42.13"/><rect x="272" y="9.34" width="2" height="41.33"/><rect x="276" y="9.14" width="2" height="41.73"/><rect x="280" y="8.28" width="2" height="43.43"/><rect x="284" y="5.74" width="2" height="48.53"/><rect x="288" y="10.65" width="2" height="38.71"/><rect x="292" y="12.43" width="2" height="35.15"/><rect x="296" y="13.40" width="2" height="33.20"/><rect x="300" y="13.86" width="2" height="32.28"/><rect x="304" y="13.95" width="2" height="32.11"/><rect x="308" y="12.66" width="2" height="34.67"/><rect x="312" y="12.63" width="2" height="34.75"/><rect x="316" y="11.15" width="2" height="37.70"/><rect x="320" y="10.00" width="2" height="40.00"/><rect x="324" y="10.60" width="2" height="38.81"/><rect x="328" y="11.39" width="2" height="37.22"/><rect x="332" y="10.05" width="2" height="39.89"/><rect x="336" y="9.49" width="2" height="41.03"/><rect x="340" y="9.06" width="2" height="41.87"/><rect x="344" y="9.56" width="2" height="40.88"/><rect x="348" y="9.71" width="2" height="40.58"/><rect x="352" y="9.72" width="2" height="40.56"/><rect x="356" y="8.96" width="2" height="42.07"/><rect x="360" y="8.52" width="2" height="42.97"/><rect x="364" y="9.55" width="2" height="40.89"/><rect x="368" y="7.35" width="2" height="45.31"/><rect x="372" y="6.99" width="2" height="46.03"/><rect x="376" y="10.06" width="2" height="39.88"/><rect x="380" y="9.96" width="2" height="40.08"/><rect x="384" y="10.68" width="2" height="38.63"/><rect x="388" y="7.93" width="2" height="44.14"/><rect x="392" y="10.28" width="2" height="39.43"/><rect x="396" y="9.36" width="2" height="41.28"/><rect x="400" y="10.38" width="2" height="39.25"/><rect x="404" y="8.85" width="2" height="42.31"/><rect x="408" y="11.35" width="2" height="37.30"/><rect x="412" y="11.79" width="2" height="36.43"/><rect x="416" y="11.37" width="2" height="37.26"/><rect x="420" y="11.94" width="2" height="36.13"/><rect x="424" y="14.20" width="2" height="31.61"/><rect x="428" y="14.18" width="2" height="31.64"/><rect x="432" y="12.73" width="2" height="34.54"/><rect x="436" y="11.47" width="2" height="37.07"/><rect x="440" y="10.00" width="2" height="40.00"/><rect x="444" y="10.61" width="2" height="38.78"/><rect x="448" y="11.20" width="2" height="37.60"/><rect x="452" y="12.04" width="2" height="35.93"/><rect x="456" y="11.50" width="2" height="37.00"/><rect x="460" y="12.22" width="2" height="35.57"/><rect x="464" y="12.37" width="2" height="35.26"/><rect x="468" y="11.78" width="2" height="36.45"/><rect x="472" y="11.49" width="2" height="37.03"/><rect x="476" y="11.72" width="2" height="36.56"/><rect x="480" y="11.43" width="2" height="37.14"/><rect x="484" y="13.07" width="2" height="33.86"/><rect x="488" y="16.46" width="2" height="27.07"/><rect x="492" y="22.79" width="2" height="14.42"/><rect x="496" y="25.50" width="2" height="8.99"/><rect x="500" y="26.04" width="2" height="7.93"/><rect x="504" y="26.95" width="2" height="6.10"/><rect x="508" y="27.26" width="2" height="5.47"/><rect x="512" y="27.92" width="2" height="4.17"/><rect x="516" y="28.34" width="2" height="3.31"/><rect x="520" y="28.71" width="2" height="2.59"/><rect x="524" y="28.95" width="2" height="2.11"/><rect x="528" y="29.00" width="2" height="2.00"/><rect x="532" y="29.00" width="2" height="2.00"/><rect x="536" y="29.00" width="2" height="2.00"/><rect x="540" y="29.00" width="2" height="2.00"/><rect x="544" y="29.00" width="2" height="2.00"/><rect x="548" y="29.00" width="2" height="2.00"/><rect x="552" y="29.00" width="2" height="2.00"/><rect x="556" y="29.00" width="2" height="2.00"/><rect x="560" y="29.00" width="2" height="2.00"/><rect x="564" y="29.00" width="2" height="2.00"/><rect x="568" y="29.00" width="2" height="2.00"/><rect x="572" y="29.00" width="2" height="2.00"/><rect x="576" y="29.00" width="2" height="2.00"/><rect x="580" y="29.00" width="2" height="2.00"/><rect x="584" y="29.00" width="2" height="2.00"/><rect x="588" y="29.00" width="2" height="2.00"/><rect x="592" y="29.00" width="2" height="2.00"/><rect x="596" y="29.00" width="2" height="2.00"/></g></svg>
